HIERARCHY
ROOT Hips
{
  OFFSET -102.467 93.6631 130.069
  CHANNELS 6 Xposition Yposition Zposition Zrotation Xrotation Yrotation
  JOINT LeftUpLeg
  {
    OFFSET 8.64259 1.95398 -2.38835
    CHANNELS 3 Zrotation Xrotation Yrotation
    JOINT LeftLeg
    {
      OFFSET 43.7702 0 0
      CHANNELS 3 Zrotation Xrotation Yrotation
      JOINT LeftFoot
      {
        OFFSET 40.6238 0 0
        CHANNELS 3 Zrotation Xrotation Yrotation
        JOINT LeftToeBase
        {
          OFFSET 12.7242 0 0
          CHANNELS 3 Zrotation Xrotation Yrotation
          End Site
          {
            OFFSET 0 0 0
          }
        }
      }
    }
  }
  JOINT RightUpLeg
  {
    OFFSET -8.2249 1.95398 -2.59336
    CHANNELS 3 Zrotation Xrotation Yrotation
    JOINT RightLeg
    {
      OFFSET 43.5653 0 0
      CHANNELS 3 Zrotation Xrotation Yrotation
      JOINT RightFoot
      {
        OFFSET 40.6238 0 0
        CHANNELS 3 Zrotation Xrotation Yrotation
        JOINT RightToeBase
        {
          OFFSET 12.7242 0 0
          CHANNELS 3 Zrotation Xrotation Yrotation
          End Site
          {
            OFFSET 0 0 0
          }
        }
      }
    }
  }
  JOINT Spine
  {
    OFFSET 0.165834 0.87714 6.61349
    CHANNELS 3 Zrotation Xrotation Yrotation
    JOINT Spine1
    {
      OFFSET 7.38963 1.71661e-005 0
      CHANNELS 3 Zrotation Xrotation Yrotation
      JOINT Spine2
      {
        OFFSET 11.9445 1.14441e-005 0
        CHANNELS 3 Zrotation Xrotation Yrotation
        JOINT Spine3
        {
          OFFSET 14.7254 4.19617e-005 0
          CHANNELS 3 Zrotation Xrotation Yrotation
          JOINT Spine4
          {
            OFFSET 10.9679 0 0
            CHANNELS 3 Zrotation Xrotation Yrotation
            JOINT RightShoulder
            {
              OFFSET 2.46616 -1.6653 3.69651
              CHANNELS 3 Zrotation Xrotation Yrotation
              JOINT RightArm
              {
                OFFSET 13.0012 0 0
                CHANNELS 3 Zrotation Xrotation Yrotation
                JOINT RightForeArm
                {
                  OFFSET 28.7848 1.52588e-005 0
                  CHANNELS 3 Zrotation Xrotation Yrotation
                  JOINT RightHand
                  {
                    OFFSET 26.5688 1.52588e-005 0
                    CHANNELS 3 Zrotation Xrotation Yrotation
                    End Site
                    {
                      OFFSET 0 0 0
                    }
                  }
                }
              }
            }
            JOINT LeftShoulder
            {
              OFFSET 2.38034 -1.29275 -3.7523
              CHANNELS 3 Zrotation Xrotation Yrotation
              JOINT LeftArm
              {
                OFFSET 16.3182 6.10351e-005 0
                CHANNELS 3 Zrotation Xrotation Yrotation
                JOINT LeftForeArm
                {
                  OFFSET 27.0901 0 0
                  CHANNELS 3 Zrotation Xrotation Yrotation
                  JOINT LeftHand
                  {
                    OFFSET 24.5451 1.52588e-005 0
                    CHANNELS 3 Zrotation Xrotation Yrotation
                    End Site
                    {
                      OFFSET 0 0 0
                    }
                  }
                }
              }
            }
            JOINT Neck
            {
              OFFSET 5.0226 -0.0266342 0
              CHANNELS 3 Zrotation Xrotation Yrotation
              JOINT Head
              {
                OFFSET 6.69363 2.86102e-005 0
                CHANNELS 3 Zrotation Xrotation Yrotation
                End Site
                {
                  OFFSET 0 0 0
                }
              }
            }
          }
        }
      }
    }
  }
}
MOTION
Frames:	10
Frame Time:	0.0416667
85.0917 94.9174 6.27114 -106.649 -46.6327 -103.549 -176.614 11.601 86.4721 -35.2532 19.6794 1.72932 61.1134 3.98701 14.6392 41.4434 -1.67631 -1.08997 170.384 17.743 84.7724 -72.5212 -11.4088 -1.06425 48.1545 9.85531 14.3526 24.1023 1.63985 4.57604 -0.242109 8.41152 -89.6058 10.0512 -0.302964 0.80767 -1.61994 -0.267116 0.820218 -24.1539 -0.531701 0.67929 -4.14122 -0.531712 0.679276 100.445 -51.7118 -84.7979 32.8733 -14.3123 -6.39314 -5.03037 -18.3181 -16.6695 -7.02134 -0.441031 2.29391 -83.386 -56.3831 89.0482 -19.8784 3.87805 -16.3056 5.66491 35.4367 -10.441 -7.67147 -0.29723 0.0943526 -7.29874 -3.96497 -4.01793 -20.2976 -3.7994 0.891357 
80.5253 96.2102 10.9985 -105.037 -44.3115 -101.721 -175.448 5.76744 87.2678 -31.8037 16.7037 1.50129 63.5731 5.05275 13.2741 41.4881 -1.45042 0.194933 169.643 22.3556 85.9168 -59.6158 -9.59274 0.93131 55.1176 7.20265 14.9259 27.9041 1.19559 6.32812 -0.606328 8.29788 -89.617 10.2817 -1.03283 0.849681 -1.38916 -0.994428 0.894311 -23.9267 -1.24043 0.499971 -3.91405 -1.24044 0.499965 100.519 -51.8563 -84.6803 33.0445 -12.8304 -3.08365 -5.01706 -16.8897 -16.9785 -7.47521 -0.435831 1.74393 -83.0337 -54.1707 89.3569 -18.511 3.54055 -24.9432 7.0893 31.2282 -12.8354 -4.55902 -0.16113 -0.734713 -8.31755 -5.99934 -4.08805 -18.9905 -5.34899 -3.05125 
75.9639 97.1647 15.125 -102.761 -40.5785 -100.071 -174.527 0.11021 86.7848 -25.6482 13.5081 0.802912 63.1499 5.71326 13.5148 43.5906 -1.22231 2.7068 167.634 19.9323 86.1907 -35.7099 5.23601 4.74611 57.7847 5.87408 13.1584 41.5561 -0.994999 7.6881 -0.781893 8.101 -89.6163 10.6773 -1.38034 0.888308 -0.993311 -1.3399 0.948194 -23.5337 -1.58349 0.432315 -3.521 -1.58348 0.432315 100.687 -51.8992 -84.422 32.8143 -10.8762 -1.84341 -4.90538 -16.415 -16.2309 -7.18614 -0.455491 2.39524 -83.2986 -52.5216 88.8235 -15.8487 3.31217 -29.7177 9.36552 24.4377 -19.8675 -2.93911 -0.103579 -1.62621 -8.57254 -7.9886 -3.97291 -18.0432 -7.04915 -5.8977 
70.9611 97.5676 18.5397 -99.4376 -34.0668 -98.8669 -174.264 -4.83419 86.0468 -21.2389 10.2929 -0.168167 59.9728 5.29334 13.3123 51.8867 -0.818904 6.89719 168.604 16.941 86.9687 -22.9028 26.9772 7.14429 57.9198 7.6545 9.91532 31.0052 -0.114526 1.56295 -0.621467 7.72444 -89.5822 11.4288 -1.04148 0.936949 -0.242116 -0.999231 0.98187 -22.7793 -1.2749 0.580609 -2.76669 -1.2749 0.580609 100.507 -51.8399 -84.6993 32.4883 -9.03346 -1.18499 -5.06308 -16.9008 -15.1815 -6.22816 -0.351446 1.5091 -82.4082 -51.7618 90.0754 -14.2855 3.20837 -31.4516 11.9893 20.3582 -27.5351 -0.591688 -0.0381554 -1.10083 -8.45396 -9.19559 -2.67338 -17.941 -8.15725 -7.46889 
65.7487 96.7488 22.0881 -98.4313 -26.2038 -97.8109 -174.38 -2.68639 85.3505 -32.3446 7.18843 -0.0977455 55.5206 2.20812 7.35338 62.6417 -0.443063 9.6959 169.88 18.5364 88.3481 -30.4854 22.1499 6.18279 63.0441 6.93177 6.1364 28.5021 0.135233 0.43297 -0.26037 7.63436 -89.7711 11.6059 -0.410664 0.498776 -0.0651012 -0.388341 0.51636 -22.6003 -0.541588 0.352293 -2.58769 -0.541591 0.352293 100.583 -51.9525 -84.5799 31.6355 -8.99206 -2.55936 -4.73724 -17.052 -14.3578 -5.9789 -0.378674 2.40204 -82.3143 -52.7761 90.2934 -12.616 4.13781 -29.5998 14.9963 20.2722 -33.9554 -0.658902 -0.0679533 -2.86078 -6.85734 -9.06198 -1.20476 -17.7872 -8.03957 -7.94271 
61.0055 95.6231 24.2914 -98.4405 -20.1529 -95.0512 -171.019 9.70332 88.0033 -55.834 5.78331 0.112775 47.4883 -3.2371 1.65646 54.2692 -1.92371 3.95695 171.152 18.844 90.8419 -38.3956 18.7839 5.62394 66.9681 7.74704 8.42938 27.4023 0.231749 -0.625464 -0.120867 7.63985 -90.2378 11.5932 -0.351777 -0.439565 -0.0777651 -0.370795 -0.423668 -22.6125 -0.203416 -0.524968 -2.59982 -0.203414 -0.524973 100.719 -51.614 -84.3811 29.9032 -9.91717 -4.39445 -5.55747 -16.5251 -16.8671 -6.7508 -0.396997 1.81037 -82.7725 -51.4435 89.5078 -17.1281 7.49967 -25.0459 15.6574 20.7837 -35.3737 0.415465 -0.0419824 -2.42516 -8.10204 -9.78479 -3.96357 -16.2661 -8.77228 -7.30617 
56.543 95.7267 26.217 -99.7834 -10.8828 -95.3339 -175.432 16.6659 89.4349 -62.9214 2.99682 2.17647 48.3211 -0.695598 7.6123 48.5658 -0.496349 7.48658 172.152 14.9398 91.913 -39.4263 12.0567 4.59625 69.3428 5.72178 7.17918 25.4058 0.727483 -0.372679 -0.059968 7.85748 -90.4072 11.1569 -0.308346 -0.778837 -0.514223 -0.342314 -0.764523 -23.0474 -0.0600476 -0.835507 -3.03472 -0.0600138 -0.835495 101.042 -52.3328 -83.8719 27.5094 -12.2908 -8.39028 -6.11454 -14.4758 -20.8012 -8.52815 -0.453641 1.04184 -82.783 -53.069 89.6263 -18.6994 10.9558 -19.0484 16.045 23.8809 -35.4889 -2.88226 -0.0967043 -3.16039 -9.32494 -11.4064 -5.74183 -16.0289 -10.0638 -10.3121 
52.077 96.542 27.6419 -98.0536 2.52656 -90.6069 178.881 18.7173 88.7563 -52.6137 3.81508 3.90504 51.3696 1.76191 9.67179 51.7283 -0.29354 8.85362 174.356 12.4755 92.1985 -37.3569 4.32304 2.11649 71.3462 3.46606 7.92613 23.6472 1.33345 1.08195 0.162031 7.75919 -90.3717 11.3554 0.149337 -0.755146 -0.315797 0.115944 -0.760996 -22.8496 0.36938 -0.675366 -2.83691 0.369365 -0.675367 100.843 -51.5784 -84.1924 27.8272 -15.4388 -10.7744 -7.68257 -12.8952 -26.4526 -9.09767 -0.409685 0.0709753 -81.9491 -55.8067 91.0394 -23.0503 9.34605 -10.3187 16.6967 29.267 -32.3373 -8.35674 -0.136607 -3.44716 -10.4192 -13.5658 -4.99502 -16.0543 -11.9889 -13.7607 
47.8764 97.4784 28.6073 -95.0743 17.2035 -91.6475 173.711 16.3049 90.3426 -31.6726 11.0697 6.30618 53.4506 3.09861 8.75615 56.0631 0.504306 12.0215 176.419 11.4363 91.839 -34.1722 -4.52788 -0.0782878 71.5484 3.09993 10.82 22.8607 1.58645 1.83242 0.292124 7.56073 -90.3853 11.7532 0.400075 -0.810352 0.0820991 0.364025 -0.827181 -22.4521 0.625137 -0.652652 -2.43948 0.625115 -0.652663 100.787 -50.7761 -84.2994 27.4359 -20.5013 -13.4057 -9.44149 -13.9093 -29.7745 -9.09533 -0.356199 -0.656556 -81.2066 -57.9614 92.2103 -28.3237 4.32666 -3.08255 13.4177 32.6787 -23.4587 -11.9192 -0.22087 -2.80898 -7.74723 -14.3572 -2.7628 -17.5183 -12.3429 -16.1105 
43.6932 97.8823 28.5861 -92.1018 29.6579 -90.7992 172.838 12.3904 93.5457 -12.4709 28.8483 7.20929 55.764 3.85053 6.80619 54.8329 0.642733 12.4381 177.872 10.4255 91.9076 -31.0273 -11.1816 -1.31139 72.1039 2.59671 13.6713 20.3129 2.23714 3.14837 0.345683 7.46829 -90.4417 11.9386 0.479316 -0.932629 0.267435 0.437785 -0.952822 -22.2666 0.737425 -0.745474 -2.25393 0.737422 -0.745478 100.933 -51.4022 -84.0594 26.4166 -22.1959 -14.6771 -9.39645 -13.2287 -30.8257 -10.2557 -0.483788 0.314235 -81.8246 -58.1465 91.3638 -31.2823 2.90831 -2.65283 7.92868 42.1133 -12.2934 -15.3019 -0.179056 -3.61957 -5.14216 -14.1901 -4.76702 -17.6844 -12.2274 -12.973 
